<svg
    xmlns="http://www.w3.org/2000/svg" viewBox="0 0 224.8 36.95">
    <defs>
        <style>#Layer_2{fill:white;}</style>
    </defs>
    <g id="Layer_2" data-name="Layer 2">
        <g id="Layer_2-2" data-name="Layer 2">
            <path d="M28,10.33A15.6,15.6,0,0,0,24.3,4.8a16.66,16.66,0,0,0-5.7-3.55A20.52,20.52,0,0,0,11.3,0H0V35H11.3a20.52,20.52,0,0,0,7.3-1.25,16.66,16.66,0,0,0,5.7-3.55A15.6,15.6,0,0,0,28,24.67a18.92,18.92,0,0,0,1.3-7.17A19,19,0,0,0,28,10.33ZM22.35,22.7a10,10,0,0,1-2.55,3.75A10.83,10.83,0,0,1,16,28.7a14.82,14.82,0,0,1-4.8.75H6.05V5.55h5.1A14.82,14.82,0,0,1,16,6.3,10.83,10.83,0,0,1,19.8,8.55a10,10,0,0,1,2.55,3.75,13.92,13.92,0,0,1,.9,5.2A13.92,13.92,0,0,1,22.35,22.7Z"/>
            <path d="M75.85,35,65.94,21.1a13.51,13.51,0,0,0,1.88-.7,10.26,10.26,0,0,0,4.38-3.8,10.44,10.44,0,0,0,1.55-5.7A10.55,10.55,0,0,0,72.2,5.15a10.26,10.26,0,0,0-4.38-3.8A15.3,15.3,0,0,0,61.15,0H45.45L48.9,5.15h12a8.58,8.58,0,0,1,3.55.68,5.29,5.29,0,0,1,2.35,2,5.7,5.7,0,0,1,.85,3.2,5.71,5.71,0,0,1-.85,3.17,5.22,5.22,0,0,1-2.35,2,8.58,8.58,0,0,1-3.55.68H56.64L68.7,35Z"/>
            <path d="M172.2,0H179L161.9,37,144.8,0h6.8l10.3,24.6Z"/>
            <polygon points="224.8 5.2 224.8 0 203.5 0 203.5 35 224.8 35 224.8 29.8 209.3 29.8 209.3 18.8 223.8 18.8 223.8 13.7 209.3 13.7 209.3 5.2 224.8 5.2"/>
            <polygon points="121.33 0 105.33 35 98.28 35 114.28 0 121.33 0"/>
        </g>
    </g>
</svg>