<svg xmlns="http://www.w3.org/2000/svg" viewBox="0 0 18 15"><defs><style>.cls-1{fill:#9bacc2;}.cls-2{fill:#fff;}.cls-3{fill:#f0f4f7;}</style></defs><g id="Layer_2" data-name="Layer 2"><g id="Layer_1-2" data-name="Layer 1"><path class="cls-1" d="M0,4.93v7.89A2.17,2.17,0,0,0,2.18,15H15.82A2.17,2.17,0,0,0,18,12.82V2.18A2.17,2.17,0,0,0,15.82,0H13.05a2.18,2.18,0,0,0-1.41.51l-2,1.73a2.18,2.18,0,0,1-1.41.51h-6A2.17,2.17,0,0,0,0,4.93Z"/><circle class="cls-2" cx="8.8" cy="7.38" r="1.38"/><path class="cls-3" d="M12.17,11.66a3.62,3.62,0,0,0-6.79,0"/></g></g></svg>