<?xml version="1.0" encoding="utf-8"?>
<svg version="1.1"
    xmlns="http://www.w3.org/2000/svg"
    xmlns:xlink="http://www.w3.org/1999/xlink" x="0px" y="0px" viewBox="0 0 1000 1000" enable-background="new 0 0 1000 1000" xml:space="preserve">
    <g>
        <g transform="translate(0.000000,512.000000) scale(0.100000,-0.100000)">
            <path fill="#FFF9E5" d="M2825.4,3858.3C2156.6,3220.4,1536.2,2627,1447.3,2542l-158.5-156.6l3.9-3577.9l5.8-3577.9l1629.5-5.8l1627.5-3.9v347.9v347.9H3270H1984.6v3015.4v3015.4h1237.1h1237.1v1188.8v1188.8h1788h1788V1898.3V-527.5H8373h338.3v2773.8V5020H6378.2l-2335-1.9L2825.4,3858.3z M3757.1,2648.3c-3.9-3.9-272.5-3.9-599.2-1.9l-589.6,5.8l591.5,606.9l593.4,606.9l5.8-605C3761,2928.6,3761,2652.2,3757.1,2648.3z"/>
            <path fill="#FFF9E5" d="M6643-2054.6v-541.2h-541.2h-541.2v-347.9v-347.9h541.2H6643v-541.2v-541.2h347.9h347.9v541.2v541.2h541.2h541.2v347.9v347.9h-541.2h-541.2v541.2v541.2h-347.9H6643V-2054.6z"/>
        </g>
    </g>
</svg>