<?xml version="1.0"?>
<svg data-name="Layer 1" id="Layer_1" viewBox="0 0 64 64" xmlns="http://www.w3.org/2000/svg">
    <defs>
        <style>.cls-1{fill:#4fbe9f;}.cls-2{fill:#dcdfe2;}.cls-3{fill:#cad0d8;}.cls-4{fill:#035c64;}</style>
    </defs>
    <title />
    <path class="cls-1" d="M32,25,24.07,11.25a4,4,0,0,0-1.5,1.49l-14,24.2a4.13,4.13,0,0,0,0,4.11l5.9,10.2A4.13,4.13,0,0,0,16,52.76Z" />
    <path class="cls-2" d="M40.07,39,56,39a4.11,4.11,0,0,0-.55-2.06L41.51,12.74A4.09,4.09,0,0,0,38,10.68H26.12a4.11,4.11,0,0,0-2.05.55Z" />
    <path class="cls-3" d="M40.07,39,56,39a4.11,4.11,0,0,0-.55-2.06l-.14-.24H38.73Z" />
    <path class="cls-4" d="M56,39H23.89L16,52.75A4,4,0,0,0,18,53.3l28,0a4.09,4.09,0,0,0,3.56-2.06L55.45,41A4.07,4.07,0,0,0,56,39Z" />
</svg>