<?xml version="1.0" encoding="utf-8"?>
<!DOCTYPE svg PUBLIC "-//W3C//DTD SVG 1.1//EN" "http://www.w3.org/Graphics/SVG/1.1/DTD/svg11.dtd">
<svg version="1.1"
    xmlns="http://www.w3.org/2000/svg"
    xmlns:xlink="http://www.w3.org/1999/xlink" x="0px" y="0px" viewBox="0 0 1000 1000" xml:space="preserve">
    <g>
        <path fill="#007A99" d="M989.5,872.5c0,0,0-554.4,0-608.6c0-73.6-67.1-66.8-67.1-66.8s-409.5,0.5-388.3,0c-23,0.5-34.3-12.1-34.3-12.1s-15.9-23.6-44.6-67c-30.1-45.5-64.9-38-64.9-38H92.7C10.9,80,10,158.6,10,158.6s0,627.9,0,684.5c0,87.8,66.3,76.9,66.3,76.9s802.3,0,852.3,0C999.5,920,989.5,872.5,989.5,872.5z M859.3,849.9c-50,0-713.6,0-713.6,0S79.4,860.8,79.4,773c0-56.6,0-544.5,0-544.5s0.9-78.7,82.7-78.7h177.4c0,0,34.8-7.4,64.8,38c28.7,43.4,44.6,66.4,44.6,66.4s11.3,12.6,34.3,12.1c-21.2,0.5,370,0,370,0s67.1-6.8,67.1,66.8c0,54.2,0,444,0,444S930.2,849.9,859.3,849.9z M615.8,395.1c-15.9-16-41.6-16-57.4,0c-15.9,16-15.9,42,0,58.1l80.1,69.9H284c-22.4,0-40.6,12-40.6,34.7c0,22.7,18.2,35.6,40.6,35.6h354.5l-80.1,70c-15.9,16-15.9,42,0,58.1c15.8,16,41.6,16,57.4,0l119.4-120.7c13.2-13.3,19.8-30.8,19.8-48.4c0-17.5-6.6-35.1-19.8-48.4L615.8,395.1z"/>
    </g>
</svg>