<svg
    xmlns="http://www.w3.org/2000/svg" width="42.5" height="53">
    <path fill="#007A99" fill-rule="evenodd" d="M20.299 50.763c1.942 0 3.516-1.723 3.516-3.848h-7.032c0 2.125 1.574 3.848 3.516 3.848z"/>
    <path fill="none" fill-rule="evenodd" stroke="#007A99" stroke-width="3" d="M7.011 36.022h27.383c1.712 0 3.1 1.55 3.1 3.463h0c0 1.912-1.388 3.462-3.1 3.462H6.596c-1.712 0-3.1-1.55-3.1-3.462h0c0-1.913 1.388-3.463 3.1-3.463h.415z"/>
    <path fill="none" fill-rule="evenodd" stroke="#007A99" stroke-width="3" d="M6.488 36.483V22.985c0-7.454 6.043-13.497 13.498-13.497h0c7.454 0 13.497 6.043 13.497 13.497v13.498M23.312 6.369c0 1.668-1.352 3.021-3.021 3.021-1.669 0-3.021-1.353-3.021-3.021 0-1.669 1.352-3.021 3.021-3.021 1.669 0 3.021 1.352 3.021 3.021z"/>
</svg>
