<svg
    xmlns="http://www.w3.org/2000/svg" width="75.5" height="36.5">
    <path fill="none" fill-rule="evenodd" stroke="#007A99" stroke-linecap="round" stroke-width="3" d="M53.497 31.877c-2.663-7.353-9.558-12.603-17.67-12.603-8.112 0-15.007 5.25-17.67 12.603M70.437 20.734c-1.818-4.718-6.524-8.086-12.06-8.086-3.342 0-6.381 1.227-8.666 3.238M3.563 20.734c1.818-4.718 6.524-8.086 12.06-8.086 3.342 0 6.381 1.227 8.666 3.238"/>
    <path fill="#007A99" fill-rule="evenodd" d="M19.497 3.995c0 1.933-1.567 3.5-3.5 3.5s-3.5-1.567-3.5-3.5c0-1.934 1.567-3.501 3.5-3.501s3.5 1.567 3.5 3.501zM61.497 3.995c0 1.933-1.567 3.5-3.5 3.5s-3.5-1.567-3.5-3.5c0-1.934 1.567-3.501 3.5-3.501s3.5 1.567 3.5 3.501z"/>
    <path fill="none" fill-rule="evenodd" stroke="#007A99" stroke-width="3" d="M41.496 8.492c0 2.762-2.239 5.001-5 5.001-2.762 0-5.001-2.239-5.001-5.001 0-2.762 2.239-5 5.001-5 2.761 0 5 2.238 5 5z"/>
</svg>
