<svg xmlns="http://www.w3.org/2000/svg" viewBox="0 0 36.95 51.46">
    <defs>
        <style>.cls-1{fill:red;}.cls-2{fill:none;stroke:red;stroke-linecap:round;stroke-linejoin:round;stroke-width:3px;}</style>
    </defs>
    <g id="Layer_2" data-name="Layer 2">
        <g id="Layer_1-2" data-name="Layer 1">
            <circle class="cls-1" cx="18.48" cy="47.88" r="3.57" />
            <path class="cls-2" d="M5,34.6V21.14A13.47,13.47,0,0,1,18.48,7.67h0A13.47,13.47,0,0,1,31.94,21.14V34.6" />
            <path class="cls-2" d="M32.36,34.6a3.23,3.23,0,0,1,3.09,3.34h0a3.22,3.22,0,0,1-3.09,3.34H4.6a3.22,3.22,0,0,1-3.1-3.34h0A3.23,3.23,0,0,1,4.6,34.6" />
            <line class="cls-2" x1="5.01" y1="34.6" x2="31.94" y2="34.6" />
            <path class="cls-2" d="M21.56,4.59A3.09,3.09,0,1,1,18.48,1.5,3.08,3.08,0,0,1,21.56,4.59Z" />
        </g>
    </g>
</svg>